<svg version="1.2" xmlns="http://www.w3.org/2000/svg" viewBox="0 0 850 1476" width="850" height="1476">
	<title>noun-y2k-6247793-svg</title>
	<style>
		.s0 { fill: #ffffff } 
	</style>
	<path id="Layer" fill-rule="evenodd" class="s0" d="m419 1173.4q-1.3 0-2.6-0.4-1.3-0.4-2.4-1.2-1.1-0.7-1.9-1.8-0.8-1.1-1.3-2.3l-0.1-0.4-0.1-0.3-88.1-538.5q-12.1-4.9-23.6-11-11.6-6-22.5-13.2-10.8-7.2-20.9-15.5-10.1-8.3-19.3-17.5c-40.8-40.8-66.2-92.3-73.6-149.1l-162.2-36h-0.2c-1.8-0.6-3.3-1.7-4.5-3.2-1.1-1.5-1.7-3.3-1.7-5.2 0-1.9 0.6-3.7 1.7-5.2 1.2-1.5 2.7-2.6 4.5-3.1l0.3-0.1 166-36.9c5.2-23.4 13.7-46 25.1-67.2 11.5-21.1 25.8-40.5 42.6-57.7 16.8-17.1 35.9-31.9 56.8-43.8 20.9-11.9 43.3-20.8 66.6-26.6l53.2-138.5c0.7-1.7 1.8-3.1 3.2-4.2 1.5-1 3.3-1.5 5-1.5 1.8 0 3.6 0.6 5 1.6 1.5 1 2.6 2.5 3.2 4.2l53.2 138.4c23.3 5.8 45.7 14.7 66.6 26.6 20.8 11.9 39.9 26.6 56.7 43.8 16.8 17.2 31.2 36.6 42.6 57.7 11.5 21.1 19.9 43.7 25.2 67.1l166.1 37h0.2c1.8 0.5 3.3 1.6 4.5 3.1 1.1 1.5 1.7 3.3 1.7 5.2 0 1.9-0.6 3.7-1.7 5.2-1.2 1.5-2.7 2.6-4.5 3.1l-0.3 0.1-162.2 36c-7.3 56.8-32.7 108.3-73.5 149.1q-9.2 9.3-19.3 17.6-10.1 8.2-21 15.4-10.8 7.2-22.4 13.3-11.5 6.1-23.6 10.9l-88.2 538.9-0.1 0.3q-0.5 1.3-1.3 2.4-0.8 1.1-1.9 1.8-1.1 0.8-2.4 1.2-1.3 0.4-2.6 0.4zm-0.6-8.2q0.1 0.1 0.3 0.1 0.1 0.1 0.3 0.1 0.2 0 0.3-0.1 0.1 0 0.2-0.1l88.8-542.5 2.1-0.8q12-4.8 23.5-10.7 11.5-5.9 22.3-13 10.8-7.1 20.8-15.2 10-8.2 19.1-17.4c40.2-40.2 65-91.1 71.6-147.2l0.4-2.8 167.5-37.2q0.2-0.1 0.3-0.3 0.1-0.2 0.1-0.4 0-0.2-0.1-0.3-0.1-0.2-0.3-0.3l-170.9-38-0.5-2.5c-5-23.2-13.1-45.5-24.3-66.3-11.2-20.9-25.2-40-41.7-57-16.6-16.9-35.4-31.4-56-43-20.6-11.6-42.7-20.3-65.7-25.8l-2.1-0.4-54.7-142.6q0-0.1-0.1-0.2-0.1-0.1-0.2-0.2 0 0-0.2-0.1-0.1 0-0.2 0-0.1 0-0.2 0-0.1 0-0.2 0.1-0.1 0.1-0.2 0.2 0 0.1-0.1 0.2l-54.7 142.6-2.1 0.4c-23 5.5-45.1 14.2-65.7 25.8-20.6 11.6-39.4 26.1-56 43.1-16.5 16.9-30.6 36-41.7 56.9-11.2 20.9-19.4 43.2-24.3 66.3l-0.5 2.5-170.9 38q-0.2 0.1-0.3 0.3-0.1 0.1-0.1 0.3 0 0.2 0.1 0.4 0.1 0.2 0.3 0.3l167.5 37.2 0.3 2.8c6.7 56.1 31.4 107 71.6 147.2q9.2 9.2 19.2 17.4 10 8.1 20.8 15.2 10.8 7.1 22.3 13 11.4 6 23.5 10.7l2.1 0.8zm93.5-565.2l24.7-150.7 0.1-0.3q0.4-1 0.9-1.9 0.6-0.8 1.3-1.5 0.8-0.7 1.7-1.2 0.9-0.6 1.8-0.9h0.3l105-23.4-1 5.9c-3 18.2-8.2 36-15.4 53-7.3 17-16.6 33.1-27.6 47.9-11.1 14.8-23.9 28.2-38.2 40-14.3 11.8-29.9 21.7-46.6 29.8zm32.5-148.6l-22 134.5c14.8-7.8 28.7-17.2 41.4-28 12.7-10.9 24.1-23.1 34.1-36.5 9.9-13.5 18.4-28 25.1-43.2 6.7-15.3 11.7-31.3 14.9-47.8l-93.2 20.7q-0.1 0.1-0.1 0.1-0.1 0-0.1 0 0 0.1-0.1 0.1 0 0 0 0.1zm-218.5 148.6l-7-3.4c-16.6-8-32.3-18-46.6-29.8-14.2-11.7-27.1-25.1-38.1-39.9-11.1-14.8-20.4-30.9-27.7-47.9-7.2-17-12.4-34.9-15.4-53.1l-1-5.8 105.3 23.4q0.9 0.3 1.8 0.8 0.9 0.5 1.7 1.2 0.7 0.7 1.3 1.5 0.5 0.9 0.9 1.9l0.1 0.3zm-125.9-169.5c3.1 16.4 8.1 32.4 14.9 47.7 6.7 15.3 15.1 29.8 25.1 43.2 10 13.4 21.4 25.6 34.1 36.5 12.7 10.9 26.6 20.3 41.4 28l-22-134.5q-0.1 0-0.1-0.1 0 0-0.1 0 0-0.1 0-0.1-0.1 0-0.1 0zm443.6-96l-101.1-22.5q-1-0.3-1.9-0.8-0.9-0.5-1.6-1.2-0.8-0.7-1.3-1.6-0.6-0.8-0.9-1.8l-53.9-140.2 8 2.6c18.1 6 35.4 14.2 51.5 24.4 16.1 10.2 30.8 22.4 44 36.2 13.1 13.8 24.4 29.2 33.8 45.8 9.3 16.6 16.6 34.3 21.6 52.6zm-98.9-30.1l87.6 19.4c-4.9-16.4-11.7-32.1-20.3-47-8.6-14.8-18.9-28.6-30.6-41.1-11.7-12.4-24.9-23.5-39.2-33-14.2-9.4-29.6-17.2-45.6-23.2l47.7 124.4q0 0.1 0.1 0.1 0 0.1 0.1 0.2 0 0 0.1 0.1 0.1 0 0.1 0.1zm-350.3 30.1l1.7-6.4c5-18.3 12.3-36 21.6-52.6 9.4-16.6 20.7-32 33.9-45.8 13.1-13.9 27.8-26 43.9-36.2 16.1-10.3 33.4-18.4 51.5-24.4l8-2.7-53.8 140.4q-0.4 0.9-1 1.8-0.5 0.8-1.3 1.5-0.7 0.7-1.6 1.2-0.9 0.5-1.8 0.8h-0.3zm147.1-155c-16.1 6-31.4 13.8-45.7 23.2-14.3 9.5-27.4 20.6-39.2 33-11.7 12.5-22 26.3-30.5 41.1-8.6 14.9-15.4 30.7-20.4 47l87.6-19.4q0.1 0 0.1-0.1 0.1 0 0.1-0.1 0.1 0 0.1-0.1 0.1-0.1 0.1-0.1z"/>
</svg>